<svg width="29" height="29" viewBox="0 0 29 29" fill="none" xmlns="http://www.w3.org/2000/svg">
<path d="M28.5236 26.2366L23.0476 20.7766C24.8144 18.5258 25.773 15.7462 25.7695 12.8847C25.7695 10.3364 25.0138 7.84525 23.598 5.72637C22.1822 3.60748 20.1699 1.95601 17.8155 0.980798C15.4611 0.00558271 12.8704 -0.249578 10.3711 0.247582C7.87166 0.744743 5.57582 1.9719 3.77386 3.77386C1.9719 5.57582 0.744743 7.87166 0.247582 10.3711C-0.249578 12.8704 0.00558271 15.4611 0.980798 17.8155C1.95601 20.1699 3.60748 22.1822 5.72637 23.598C7.84525 25.0138 10.3364 25.7695 12.8847 25.7695C15.7462 25.773 18.5258 24.8144 20.7766 23.0476L26.2366 28.5236C26.3863 28.6745 26.5644 28.7944 26.7607 28.8761C26.9569 28.9579 27.1675 29 27.3801 29C27.5927 29 27.8032 28.9579 27.9995 28.8761C28.1957 28.7944 28.3739 28.6745 28.5236 28.5236C28.6745 28.3739 28.7944 28.1957 28.8761 27.9995C28.9579 27.8032 29 27.5927 29 27.3801C29 27.1675 28.9579 26.9569 28.8761 26.7607C28.7944 26.5644 28.6745 26.3863 28.5236 26.2366ZM3.22119 12.8847C3.22119 10.9735 3.78795 9.10512 4.84979 7.51596C5.91164 5.9268 7.42088 4.6882 9.18666 3.95678C10.9524 3.22537 12.8955 3.034 14.77 3.40687C16.6446 3.77974 18.3664 4.70011 19.7179 6.05158C21.0694 7.40305 21.9897 9.12493 22.3626 10.9995C22.7355 12.874 22.5441 14.817 21.8127 16.5828C21.0813 18.3486 19.8427 19.8578 18.2535 20.9197C16.6644 21.9815 14.796 22.5483 12.8847 22.5483C10.3218 22.5483 7.86385 21.5302 6.05158 19.7179C4.23931 17.9056 3.22119 15.4477 3.22119 12.8847Z" fill="black"/>
</svg>
